<svg xmlns="http://www.w3.org/2000/svg" enable-background="new 0 0 512 512" viewBox="0 0 450 450" id="SpaceHelmet">
    <path fill="#fff" d="M416.363,227.012c0,88-71.597,159.591-159.604,159.591c-88.009,0-159.606-71.591-159.606-159.591
	c0-88.015,71.597-159.619,159.606-159.619C344.766,67.393,416.363,138.997,416.363,227.012z"
        class="colorced7db svgShape"></path>
    <path fill="#8526fe" d="M192.787,325.093c-8.17-5.494-15.508-12.076-22.005-19.416l148.531-149.003
	c9.314,4.543,18.113,10.388,25.841,17.721L192.787,325.093z M288.508,146.086c-11.49-2.517-22.579-3.598-32.037-3.598
	c-0.013,0-0.013,0-0.028,0c-108.483,2.741-114.565,85.441-114.635,87.129c0,18.465,4.477,35.864,12.247,51.344L288.508,146.086z
	 M362.795,198.159L220.674,338.714c11.374,3.784,23.508,5.909,36.142,5.909c34.239,0,68.063-15.188,90.454-40.619
	c19.258-21.877,27.943-48.954,24.452-76.254C370.277,216.525,367.086,206.788,362.795,198.159z M97.153,227.012
	c0-24.866,5.718-48.421,15.903-69.422H90.773c-21.992,0-39.891,19.716-39.891,43.954v50.908c0,24.238,16.483,43.954,36.743,43.954
	h25.423C102.868,275.412,97.153,251.867,97.153,227.012z M421.227,157.59H400.46c10.185,21.002,15.903,44.556,15.903,69.422
	c0,24.855-5.714,48.399-15.894,69.393h23.907c20.26,0,36.743-19.716,36.743-43.954v-50.908
	C461.119,177.306,443.219,157.59,421.227,157.59z M421.356,338.535l-28.507-28.231c-28.098,45.733-78.588,76.299-136.09,76.299
	c-56.52,0-106.268-29.529-134.634-73.966l-30.052,24.317c-5.951,4.807-7.197,13.385-2.861,19.687
	c10.874,15.81,23.967,30.032,38.918,42.273c36.026,29.467,81.568,45.692,128.227,45.692c47.001,0,92.816-16.446,129.001-46.307
	c14.408-11.897,27.084-25.69,37.715-40.999C427.138,351.455,426.408,343.543,421.356,338.535z"
        class="color0c6990 svgShape"></path>
</svg>